<svg xmlns="http://www.w3.org/2000/svg" width="2834.65" height="2834.65" viewBox="0 0 2834.65 2834.65"><path d="M2486.635 1233.421c47.542-28.148 88.073-67.236 116.37-116.718 43.017-75.143 54.355-162.221 31.778-245.222-38.143-140.44-166.598-238.508-312.359-238.508-28.396 0-56.743 3.78-84.244 11.289l-8.305 2.238-27.302 18.848 284.062 568.073zM712.044 688.273L467.22 1259.48l248.604 107.617c99.71 61.915 251.09 198.674 177.29 431.215l-125.67 219.362L1375.153 2336l36.652-51.919c19.544-27.7 64.352-27.7 83.796 0l71.562 101.301 583.093-349.855-135.914-237.215c-72.756-229.358 74.646-365.72 171.67-427.634l209.764-96.378-275.906-551.763-201.807 139.395c31.131-41.823 56.991-103.639 56.991-218.765 0-108.86-12.134-199.321-32.623-275.608l-25.661-76.884C1823.277 58.981 1632.709 0 1464.868 0 986.906 0 931.605 368.952 931.605 646.499c0 113.983 45.901 186.938 77.232 230.104l-296.793-188.33zm741.734 1300.955c-95.98 0-174.057-78.077-174.057-174.057 0-95.98 78.077-174.057 174.057-174.057s174.057 78.077 174.057 174.057c0 95.98-78.077 174.057-174.057 174.057zm0-447.576c-95.98 0-174.057-78.077-174.057-174.057 0-95.98 78.077-174.057 174.057-174.057s174.057 78.077 174.057 174.057c0 95.98-78.077 174.057-174.057 174.057zm174.057-1243.268c54.953 0 99.461 44.559 99.461 99.461s-44.509 99.461-99.461 99.461-99.461-44.559-99.461-99.461 44.509-99.461 99.461-99.461zm-348.115 0c54.952 0 99.461 44.559 99.461 99.461s-44.509 99.461-99.461 99.461-99.461-44.559-99.461-99.461 44.509-99.461 99.461-99.461zm-49.731 298.384c27.501 0 49.731 22.23 49.731 49.731 0 59.776 84.841 117.166 174.604 118.11 87.327 0 173.51-58.533 173.51-118.11 0-27.501 22.229-49.731 49.731-49.731 27.501 0 49.731 22.23 49.731 49.731 0 128.206-144.12 217.572-273.519 217.572-132.333-1.343-273.519-89.117-273.519-217.572.001-27.501 22.23-49.731 49.731-49.731zm87.328 1821.139l-599.305-313.95-40.978 71.512 593.038 309.375zm308.728 49.432l-.398.696 56.544 79.967 551.215-367.46-33.618-58.732-574.937 344.932zm698.02-227.717l-584.485 389.69 30.932 43.763c1.84 3.183 3.929 6.067 4.973 7.012 8.952 14.521 18.052 27.302 27.949 39.039 4.277 5.073 8.752 9.797 13.278 14.521 9.847 10.394 20.29 20.191 31.231 28.993 5.172 4.227 10.443 8.106 15.715 11.836 12.134 8.653 24.915 16.561 38.293 23.573 4.625 2.387 9.15 4.525 13.576 6.564 15.118 7.012 30.385 12.781 45.205 17.057l12.284 3.183c16.312 4.078 32.723 6.913 48.686 8.355 4.078.348 8.106.547 12.134.746l6.365.298c3.382.199 6.863.398 10.344.398h90.162c161.426 0 298.981-110.7 326.979-263.224 24.518-132.98-35.805-262.579-143.621-331.804zm-1739.878-.398c-108.214 69.076-168.885 198.972-144.319 332.201 27.998 152.524 165.504 263.224 326.93 263.224h90.162c3.481 0 6.962-.199 10.394-.448l6.366-.298c4.078-.199 8.056-.398 11.985-.746 16.063-1.442 32.474-4.277 51.422-9.001l9.399-2.487c15.068-4.376 30.336-10.145 45.205-17.058 4.724-2.138 9.25-4.277 13.925-6.714 13.278-6.962 26.009-14.869 38.044-23.423 5.421-3.829 10.742-7.708 15.566-11.687 11.239-9.051 21.683-18.848 31.529-29.192 4.526-4.774 9.001-9.499 13.278-14.571 9.847-11.737 18.997-24.517 26.705-37.149l81.26-115.127-627.851-327.524zM375.069 1222.132l251.936-587.817-16.859-10.692-13.626-5.968c-27.551-7.46-55.848-11.289-84.244-11.289-145.81 0-274.265 98.069-312.359 238.508-22.578 83.001-11.289 170.079 31.778 245.222 33.569 58.733 83.548 104.137 143.374 132.036z" fill="#FFF"/></svg>